<svg width="2945" height="1005" xmlns="http://www.w3.org/2000/svg" xmlns:xlink="http://www.w3.org/1999/xlink" xml:space="preserve" overflow="hidden"><defs><clipPath id="clip0"><rect x="818" y="1694" width="2945" height="1005"/></clipPath><linearGradient x1="818.065" y1="2190.58" x2="1830.37" y2="2190.58" gradientUnits="userSpaceOnUse" spreadMethod="reflect" id="fill1"><stop offset="0" stop-color="#0C70CB"/><stop offset="0.14" stop-color="#0C70CB"/><stop offset="0.76" stop-color="#6CC2D9"/><stop offset="1" stop-color="#6CC2D9"/></linearGradient><linearGradient x1="818.065" y1="2190.58" x2="1830.37" y2="2190.58" gradientUnits="userSpaceOnUse" spreadMethod="reflect" id="fill2"><stop offset="0" stop-color="#0C70CB"/><stop offset="0.14" stop-color="#0C70CB"/><stop offset="0.76" stop-color="#6CC2D9"/><stop offset="1" stop-color="#6CC2D9"/></linearGradient><linearGradient x1="818.065" y1="2190.58" x2="1830.37" y2="2190.58" gradientUnits="userSpaceOnUse" spreadMethod="reflect" id="fill3"><stop offset="0" stop-color="#0C70CB"/><stop offset="0.14" stop-color="#0C70CB"/><stop offset="0.76" stop-color="#6CC2D9"/><stop offset="1" stop-color="#6CC2D9"/></linearGradient><linearGradient x1="818.065" y1="2190.58" x2="1830.37" y2="2190.58" gradientUnits="userSpaceOnUse" spreadMethod="reflect" id="fill4"><stop offset="0" stop-color="#0C70CB"/><stop offset="0.14" stop-color="#0C70CB"/><stop offset="0.76" stop-color="#6CC2D9"/><stop offset="1" stop-color="#6CC2D9"/></linearGradient><linearGradient x1="818.065" y1="2190.58" x2="1830.37" y2="2190.58" gradientUnits="userSpaceOnUse" spreadMethod="reflect" id="fill5"><stop offset="0" stop-color="#0C70CB"/><stop offset="0.14" stop-color="#0C70CB"/><stop offset="0.76" stop-color="#6CC2D9"/><stop offset="1" stop-color="#6CC2D9"/></linearGradient><linearGradient x1="818.065" y1="2190.58" x2="1830.37" y2="2190.58" gradientUnits="userSpaceOnUse" spreadMethod="reflect" id="fill6"><stop offset="0" stop-color="#0C70CB"/><stop offset="0.14" stop-color="#0C70CB"/><stop offset="0.76" stop-color="#6CC2D9"/><stop offset="1" stop-color="#6CC2D9"/></linearGradient><linearGradient x1="818.065" y1="2190.58" x2="1830.37" y2="2190.58" gradientUnits="userSpaceOnUse" spreadMethod="reflect" id="fill7"><stop offset="0" stop-color="#0C70CB"/><stop offset="0.14" stop-color="#0C70CB"/><stop offset="0.76" stop-color="#6CC2D9"/><stop offset="1" stop-color="#6CC2D9"/></linearGradient><linearGradient x1="818.065" y1="2190.58" x2="1830.37" y2="2190.58" gradientUnits="userSpaceOnUse" spreadMethod="reflect" id="fill8"><stop offset="0" stop-color="#0C70CB"/><stop offset="0.14" stop-color="#0C70CB"/><stop offset="0.76" stop-color="#6CC2D9"/><stop offset="1" stop-color="#6CC2D9"/></linearGradient><linearGradient x1="818.065" y1="2190.58" x2="1830.37" y2="2190.58" gradientUnits="userSpaceOnUse" spreadMethod="reflect" id="fill9"><stop offset="0" stop-color="#0C70CB"/><stop offset="0.14" stop-color="#0C70CB"/><stop offset="0.76" stop-color="#6CC2D9"/><stop offset="1" stop-color="#6CC2D9"/></linearGradient><linearGradient x1="818.065" y1="2190.58" x2="1830.37" y2="2190.58" gradientUnits="userSpaceOnUse" spreadMethod="reflect" id="fill10"><stop offset="0" stop-color="#0C70CB"/><stop offset="0.14" stop-color="#0C70CB"/><stop offset="0.76" stop-color="#6CC2D9"/><stop offset="1" stop-color="#6CC2D9"/></linearGradient><linearGradient x1="818.065" y1="2190.58" x2="1830.37" y2="2190.58" gradientUnits="userSpaceOnUse" spreadMethod="reflect" id="fill11"><stop offset="0" stop-color="#0C70CB"/><stop offset="0.14" stop-color="#0C70CB"/><stop offset="0.76" stop-color="#6CC2D9"/><stop offset="1" stop-color="#6CC2D9"/></linearGradient><linearGradient x1="818.065" y1="2190.58" x2="1830.37" y2="2190.58" gradientUnits="userSpaceOnUse" spreadMethod="reflect" id="fill12"><stop offset="0" stop-color="#0C70CB"/><stop offset="0.14" stop-color="#0C70CB"/><stop offset="0.76" stop-color="#6CC2D9"/><stop offset="1" stop-color="#6CC2D9"/></linearGradient><linearGradient x1="818.065" y1="2190.58" x2="1830.37" y2="2190.58" gradientUnits="userSpaceOnUse" spreadMethod="reflect" id="fill13"><stop offset="0" stop-color="#0C70CB"/><stop offset="0.14" stop-color="#0C70CB"/><stop offset="0.76" stop-color="#6CC2D9"/><stop offset="1" stop-color="#6CC2D9"/></linearGradient><linearGradient x1="818.065" y1="2190.58" x2="1830.37" y2="2190.58" gradientUnits="userSpaceOnUse" spreadMethod="reflect" id="fill14"><stop offset="0" stop-color="#0C70CB"/><stop offset="0.14" stop-color="#0C70CB"/><stop offset="0.76" stop-color="#6CC2D9"/><stop offset="1" stop-color="#6CC2D9"/></linearGradient><linearGradient x1="818.065" y1="2190.58" x2="1830.37" y2="2190.58" gradientUnits="userSpaceOnUse" spreadMethod="reflect" id="fill15"><stop offset="0" stop-color="#0C70CB"/><stop offset="0.14" stop-color="#0C70CB"/><stop offset="0.76" stop-color="#6CC2D9"/><stop offset="1" stop-color="#6CC2D9"/></linearGradient><linearGradient x1="818.065" y1="2190.58" x2="1830.37" y2="2190.58" gradientUnits="userSpaceOnUse" spreadMethod="reflect" id="fill16"><stop offset="0" stop-color="#0C70CB"/><stop offset="0.14" stop-color="#0C70CB"/><stop offset="0.76" stop-color="#6CC2D9"/><stop offset="1" stop-color="#6CC2D9"/></linearGradient><linearGradient x1="818.065" y1="2190.58" x2="1830.37" y2="2190.58" gradientUnits="userSpaceOnUse" spreadMethod="reflect" id="fill17"><stop offset="0" stop-color="#0C70CB"/><stop offset="0.14" stop-color="#0C70CB"/><stop offset="0.76" stop-color="#6CC2D9"/><stop offset="1" stop-color="#6CC2D9"/></linearGradient><linearGradient x1="818.065" y1="2190.58" x2="1830.37" y2="2190.58" gradientUnits="userSpaceOnUse" spreadMethod="reflect" id="fill18"><stop offset="0" stop-color="#0C70CB"/><stop offset="0.14" stop-color="#0C70CB"/><stop offset="0.76" stop-color="#6CC2D9"/><stop offset="1" stop-color="#6CC2D9"/></linearGradient><linearGradient x1="818.065" y1="2190.58" x2="1830.37" y2="2190.58" gradientUnits="userSpaceOnUse" spreadMethod="reflect" id="fill19"><stop offset="0" stop-color="#0C70CB"/><stop offset="0.14" stop-color="#0C70CB"/><stop offset="0.76" stop-color="#6CC2D9"/><stop offset="1" stop-color="#6CC2D9"/></linearGradient><linearGradient x1="818.065" y1="2190.58" x2="1830.37" y2="2190.58" gradientUnits="userSpaceOnUse" spreadMethod="reflect" id="fill20"><stop offset="0" stop-color="#0C70CB"/><stop offset="0.14" stop-color="#0C70CB"/><stop offset="0.76" stop-color="#6CC2D9"/><stop offset="1" stop-color="#6CC2D9"/></linearGradient><linearGradient x1="818.065" y1="2190.58" x2="1830.37" y2="2190.58" gradientUnits="userSpaceOnUse" spreadMethod="reflect" id="fill21"><stop offset="0" stop-color="#0C70CB"/><stop offset="0.14" stop-color="#0C70CB"/><stop offset="0.76" stop-color="#6CC2D9"/><stop offset="1" stop-color="#6CC2D9"/></linearGradient><linearGradient x1="818.065" y1="2190.58" x2="1830.37" y2="2190.58" gradientUnits="userSpaceOnUse" spreadMethod="reflect" id="fill22"><stop offset="0" stop-color="#0C70CB"/><stop offset="0.14" stop-color="#0C70CB"/><stop offset="0.76" stop-color="#6CC2D9"/><stop offset="1" stop-color="#6CC2D9"/></linearGradient><linearGradient x1="818.065" y1="2190.58" x2="1830.37" y2="2190.58" gradientUnits="userSpaceOnUse" spreadMethod="reflect" id="fill23"><stop offset="0" stop-color="#0C70CB"/><stop offset="0.14" stop-color="#0C70CB"/><stop offset="0.76" stop-color="#6CC2D9"/><stop offset="1" stop-color="#6CC2D9"/></linearGradient><linearGradient x1="818.065" y1="2190.58" x2="1830.37" y2="2190.58" gradientUnits="userSpaceOnUse" spreadMethod="reflect" id="fill24"><stop offset="0" stop-color="#0C70CB"/><stop offset="0.14" stop-color="#0C70CB"/><stop offset="0.76" stop-color="#6CC2D9"/><stop offset="1" stop-color="#6CC2D9"/></linearGradient><linearGradient x1="818.065" y1="2190.58" x2="1830.37" y2="2190.58" gradientUnits="userSpaceOnUse" spreadMethod="reflect" id="fill25"><stop offset="0" stop-color="#0C70CB"/><stop offset="0.14" stop-color="#0C70CB"/><stop offset="0.76" stop-color="#6CC2D9"/><stop offset="1" stop-color="#6CC2D9"/></linearGradient><linearGradient x1="818.065" y1="2190.58" x2="1830.37" y2="2190.58" gradientUnits="userSpaceOnUse" spreadMethod="reflect" id="fill26"><stop offset="0" stop-color="#0C70CB"/><stop offset="0.14" stop-color="#0C70CB"/><stop offset="0.76" stop-color="#6CC2D9"/><stop offset="1" stop-color="#6CC2D9"/></linearGradient><linearGradient x1="818.065" y1="2190.58" x2="1830.37" y2="2190.58" gradientUnits="userSpaceOnUse" spreadMethod="reflect" id="fill27"><stop offset="0" stop-color="#0C70CB"/><stop offset="0.14" stop-color="#0C70CB"/><stop offset="0.76" stop-color="#6CC2D9"/><stop offset="1" stop-color="#6CC2D9"/></linearGradient><linearGradient x1="818.065" y1="2190.58" x2="1830.37" y2="2190.58" gradientUnits="userSpaceOnUse" spreadMethod="reflect" id="fill28"><stop offset="0" stop-color="#0C70CB"/><stop offset="0.14" stop-color="#0C70CB"/><stop offset="0.76" stop-color="#6CC2D9"/><stop offset="1" stop-color="#6CC2D9"/></linearGradient><linearGradient x1="818.065" y1="2190.58" x2="1830.37" y2="2190.58" gradientUnits="userSpaceOnUse" spreadMethod="reflect" id="fill29"><stop offset="0" stop-color="#0C70CB"/><stop offset="0.14" stop-color="#0C70CB"/><stop offset="0.76" stop-color="#6CC2D9"/><stop offset="1" stop-color="#6CC2D9"/></linearGradient><linearGradient x1="818.065" y1="2190.58" x2="1830.37" y2="2190.58" gradientUnits="userSpaceOnUse" spreadMethod="reflect" id="fill30"><stop offset="0" stop-color="#0C70CB"/><stop offset="0.14" stop-color="#0C70CB"/><stop offset="0.76" stop-color="#6CC2D9"/><stop offset="1" stop-color="#6CC2D9"/></linearGradient><linearGradient x1="818.065" y1="2190.58" x2="1830.37" y2="2190.58" gradientUnits="userSpaceOnUse" spreadMethod="reflect" id="fill31"><stop offset="0" stop-color="#0C70CB"/><stop offset="0.14" stop-color="#0C70CB"/><stop offset="0.76" stop-color="#6CC2D9"/><stop offset="1" stop-color="#6CC2D9"/></linearGradient><linearGradient x1="818.065" y1="2190.58" x2="1830.37" y2="2190.58" gradientUnits="userSpaceOnUse" spreadMethod="reflect" id="fill32"><stop offset="0" stop-color="#0C70CB"/><stop offset="0.14" stop-color="#0C70CB"/><stop offset="0.76" stop-color="#6CC2D9"/><stop offset="1" stop-color="#6CC2D9"/></linearGradient><linearGradient x1="818.065" y1="2190.58" x2="1830.37" y2="2190.58" gradientUnits="userSpaceOnUse" spreadMethod="reflect" id="fill33"><stop offset="0" stop-color="#0C70CB"/><stop offset="0.14" stop-color="#0C70CB"/><stop offset="0.76" stop-color="#6CC2D9"/><stop offset="1" stop-color="#6CC2D9"/></linearGradient><linearGradient x1="818.065" y1="2190.58" x2="1830.37" y2="2190.58" gradientUnits="userSpaceOnUse" spreadMethod="reflect" id="fill34"><stop offset="0" stop-color="#0C70CB"/><stop offset="0.14" stop-color="#0C70CB"/><stop offset="0.76" stop-color="#6CC2D9"/><stop offset="1" stop-color="#6CC2D9"/></linearGradient><linearGradient x1="818.065" y1="2190.58" x2="1830.37" y2="2190.58" gradientUnits="userSpaceOnUse" spreadMethod="reflect" id="fill35"><stop offset="0" stop-color="#0C70CB"/><stop offset="0.14" stop-color="#0C70CB"/><stop offset="0.76" stop-color="#6CC2D9"/><stop offset="1" stop-color="#6CC2D9"/></linearGradient><linearGradient x1="818.065" y1="2190.58" x2="1830.37" y2="2190.58" gradientUnits="userSpaceOnUse" spreadMethod="reflect" id="fill36"><stop offset="0" stop-color="#0C70CB"/><stop offset="0.14" stop-color="#0C70CB"/><stop offset="0.76" stop-color="#6CC2D9"/><stop offset="1" stop-color="#6CC2D9"/></linearGradient><linearGradient x1="818.065" y1="2190.58" x2="1830.37" y2="2190.58" gradientUnits="userSpaceOnUse" spreadMethod="reflect" id="fill37"><stop offset="0" stop-color="#0C70CB"/><stop offset="0.14" stop-color="#0C70CB"/><stop offset="0.76" stop-color="#6CC2D9"/><stop offset="1" stop-color="#6CC2D9"/></linearGradient><linearGradient x1="818.065" y1="2190.58" x2="1830.37" y2="2190.58" gradientUnits="userSpaceOnUse" spreadMethod="reflect" id="fill38"><stop offset="0" stop-color="#0C70CB"/><stop offset="0.14" stop-color="#0C70CB"/><stop offset="0.76" stop-color="#6CC2D9"/><stop offset="1" stop-color="#6CC2D9"/></linearGradient><linearGradient x1="818.065" y1="2190.58" x2="1830.37" y2="2190.58" gradientUnits="userSpaceOnUse" spreadMethod="reflect" id="fill39"><stop offset="0" stop-color="#0C70CB"/><stop offset="0.14" stop-color="#0C70CB"/><stop offset="0.76" stop-color="#6CC2D9"/><stop offset="1" stop-color="#6CC2D9"/></linearGradient><linearGradient x1="818.065" y1="2190.58" x2="1830.37" y2="2190.58" gradientUnits="userSpaceOnUse" spreadMethod="reflect" id="fill40"><stop offset="0" stop-color="#0C70CB"/><stop offset="0.14" stop-color="#0C70CB"/><stop offset="0.76" stop-color="#6CC2D9"/><stop offset="1" stop-color="#6CC2D9"/></linearGradient><linearGradient x1="818.065" y1="2190.58" x2="1830.37" y2="2190.58" gradientUnits="userSpaceOnUse" spreadMethod="reflect" id="fill41"><stop offset="0" stop-color="#0C70CB"/><stop offset="0.14" stop-color="#0C70CB"/><stop offset="0.76" stop-color="#6CC2D9"/><stop offset="1" stop-color="#6CC2D9"/></linearGradient><linearGradient x1="818.065" y1="2190.58" x2="1830.37" y2="2190.58" gradientUnits="userSpaceOnUse" spreadMethod="reflect" id="fill42"><stop offset="0" stop-color="#0C70CB"/><stop offset="0.14" stop-color="#0C70CB"/><stop offset="0.76" stop-color="#6CC2D9"/><stop offset="1" stop-color="#6CC2D9"/></linearGradient><linearGradient x1="818.065" y1="2190.58" x2="1830.37" y2="2190.58" gradientUnits="userSpaceOnUse" spreadMethod="reflect" id="fill43"><stop offset="0" stop-color="#0C70CB"/><stop offset="0.14" stop-color="#0C70CB"/><stop offset="0.76" stop-color="#6CC2D9"/><stop offset="1" stop-color="#6CC2D9"/></linearGradient><linearGradient x1="818.065" y1="2190.58" x2="1830.37" y2="2190.58" gradientUnits="userSpaceOnUse" spreadMethod="reflect" id="fill44"><stop offset="0" stop-color="#0C70CB"/><stop offset="0.14" stop-color="#0C70CB"/><stop offset="0.76" stop-color="#6CC2D9"/><stop offset="1" stop-color="#6CC2D9"/></linearGradient><linearGradient x1="818.065" y1="2190.58" x2="1830.37" y2="2190.58" gradientUnits="userSpaceOnUse" spreadMethod="reflect" id="fill45"><stop offset="0" stop-color="#0C70CB"/><stop offset="0.14" stop-color="#0C70CB"/><stop offset="0.76" stop-color="#6CC2D9"/><stop offset="1" stop-color="#6CC2D9"/></linearGradient><linearGradient x1="818.065" y1="2190.58" x2="1830.37" y2="2190.58" gradientUnits="userSpaceOnUse" spreadMethod="reflect" id="fill46"><stop offset="0" stop-color="#0C70CB"/><stop offset="0.14" stop-color="#0C70CB"/><stop offset="0.76" stop-color="#6CC2D9"/><stop offset="1" stop-color="#6CC2D9"/></linearGradient><linearGradient x1="818.065" y1="2190.58" x2="1830.37" y2="2190.58" gradientUnits="userSpaceOnUse" spreadMethod="reflect" id="fill47"><stop offset="0" stop-color="#0C70CB"/><stop offset="0.14" stop-color="#0C70CB"/><stop offset="0.76" stop-color="#6CC2D9"/><stop offset="1" stop-color="#6CC2D9"/></linearGradient><linearGradient x1="818.065" y1="2190.58" x2="1830.37" y2="2190.58" gradientUnits="userSpaceOnUse" spreadMethod="reflect" id="fill48"><stop offset="0" stop-color="#0C70CB"/><stop offset="0.14" stop-color="#0C70CB"/><stop offset="0.76" stop-color="#6CC2D9"/><stop offset="1" stop-color="#6CC2D9"/></linearGradient><linearGradient x1="818.065" y1="2190.58" x2="1830.37" y2="2190.58" gradientUnits="userSpaceOnUse" spreadMethod="reflect" id="fill49"><stop offset="0" stop-color="#0C70CB"/><stop offset="0.14" stop-color="#0C70CB"/><stop offset="0.76" stop-color="#6CC2D9"/><stop offset="1" stop-color="#6CC2D9"/></linearGradient><linearGradient x1="818.065" y1="2190.58" x2="1830.37" y2="2190.58" gradientUnits="userSpaceOnUse" spreadMethod="reflect" id="fill50"><stop offset="0" stop-color="#0C70CB"/><stop offset="0.14" stop-color="#0C70CB"/><stop offset="0.76" stop-color="#6CC2D9"/><stop offset="1" stop-color="#6CC2D9"/></linearGradient><linearGradient x1="818.065" y1="2190.58" x2="1830.37" y2="2190.58" gradientUnits="userSpaceOnUse" spreadMethod="reflect" id="fill51"><stop offset="0" stop-color="#0C70CB"/><stop offset="0.14" stop-color="#0C70CB"/><stop offset="0.76" stop-color="#6CC2D9"/><stop offset="1" stop-color="#6CC2D9"/></linearGradient><linearGradient x1="818.065" y1="2190.58" x2="1830.37" y2="2190.58" gradientUnits="userSpaceOnUse" spreadMethod="reflect" id="fill52"><stop offset="0" stop-color="#0C70CB"/><stop offset="0.14" stop-color="#0C70CB"/><stop offset="0.76" stop-color="#6CC2D9"/><stop offset="1" stop-color="#6CC2D9"/></linearGradient><linearGradient x1="818.065" y1="2190.58" x2="1830.37" y2="2190.58" gradientUnits="userSpaceOnUse" spreadMethod="reflect" id="fill53"><stop offset="0" stop-color="#0C70CB"/><stop offset="0.14" stop-color="#0C70CB"/><stop offset="0.76" stop-color="#6CC2D9"/><stop offset="1" stop-color="#6CC2D9"/></linearGradient><linearGradient x1="818.065" y1="2190.58" x2="1830.37" y2="2190.58" gradientUnits="userSpaceOnUse" spreadMethod="reflect" id="fill54"><stop offset="0" stop-color="#0C70CB"/><stop offset="0.14" stop-color="#0C70CB"/><stop offset="0.76" stop-color="#6CC2D9"/><stop offset="1" stop-color="#6CC2D9"/></linearGradient><linearGradient x1="818.065" y1="2190.58" x2="1830.37" y2="2190.58" gradientUnits="userSpaceOnUse" spreadMethod="reflect" id="fill55"><stop offset="0" stop-color="#0C70CB"/><stop offset="0.14" stop-color="#0C70CB"/><stop offset="0.76" stop-color="#6CC2D9"/><stop offset="1" stop-color="#6CC2D9"/></linearGradient><linearGradient x1="818.065" y1="2190.58" x2="1830.37" y2="2190.58" gradientUnits="userSpaceOnUse" spreadMethod="reflect" id="fill56"><stop offset="0" stop-color="#0C70CB"/><stop offset="0.14" stop-color="#0C70CB"/><stop offset="0.76" stop-color="#6CC2D9"/><stop offset="1" stop-color="#6CC2D9"/></linearGradient><linearGradient x1="818.065" y1="2190.58" x2="1830.37" y2="2190.58" gradientUnits="userSpaceOnUse" spreadMethod="reflect" id="fill57"><stop offset="0" stop-color="#0C70CB"/><stop offset="0.14" stop-color="#0C70CB"/><stop offset="0.76" stop-color="#6CC2D9"/><stop offset="1" stop-color="#6CC2D9"/></linearGradient><linearGradient x1="818.065" y1="2190.58" x2="1830.37" y2="2190.58" gradientUnits="userSpaceOnUse" spreadMethod="reflect" id="fill58"><stop offset="0" stop-color="#0C70CB"/><stop offset="0.14" stop-color="#0C70CB"/><stop offset="0.76" stop-color="#6CC2D9"/><stop offset="1" stop-color="#6CC2D9"/></linearGradient><linearGradient x1="818.065" y1="2190.58" x2="1830.37" y2="2190.58" gradientUnits="userSpaceOnUse" spreadMethod="reflect" id="fill59"><stop offset="0" stop-color="#0C70CB"/><stop offset="0.14" stop-color="#0C70CB"/><stop offset="0.76" stop-color="#6CC2D9"/><stop offset="1" stop-color="#6CC2D9"/></linearGradient><linearGradient x1="818.065" y1="2190.58" x2="1830.37" y2="2190.58" gradientUnits="userSpaceOnUse" spreadMethod="reflect" id="fill60"><stop offset="0" stop-color="#0C70CB"/><stop offset="0.14" stop-color="#0C70CB"/><stop offset="0.76" stop-color="#6CC2D9"/><stop offset="1" stop-color="#6CC2D9"/></linearGradient><linearGradient x1="818.065" y1="2190.58" x2="1830.37" y2="2190.58" gradientUnits="userSpaceOnUse" spreadMethod="reflect" id="fill61"><stop offset="0" stop-color="#0C70CB"/><stop offset="0.14" stop-color="#0C70CB"/><stop offset="0.76" stop-color="#6CC2D9"/><stop offset="1" stop-color="#6CC2D9"/></linearGradient><linearGradient x1="818.065" y1="2190.58" x2="1830.37" y2="2190.58" gradientUnits="userSpaceOnUse" spreadMethod="reflect" id="fill62"><stop offset="0" stop-color="#0C70CB"/><stop offset="0.14" stop-color="#0C70CB"/><stop offset="0.76" stop-color="#6CC2D9"/><stop offset="1" stop-color="#6CC2D9"/></linearGradient><linearGradient x1="818.065" y1="2190.58" x2="1830.37" y2="2190.58" gradientUnits="userSpaceOnUse" spreadMethod="reflect" id="fill63"><stop offset="0" stop-color="#0C70CB"/><stop offset="0.14" stop-color="#0C70CB"/><stop offset="0.76" stop-color="#6CC2D9"/><stop offset="1" stop-color="#6CC2D9"/></linearGradient><linearGradient x1="818.065" y1="2190.58" x2="1830.37" y2="2190.58" gradientUnits="userSpaceOnUse" spreadMethod="reflect" id="fill64"><stop offset="0" stop-color="#0C70CB"/><stop offset="0.14" stop-color="#0C70CB"/><stop offset="0.76" stop-color="#6CC2D9"/><stop offset="1" stop-color="#6CC2D9"/></linearGradient><linearGradient x1="818.065" y1="2190.58" x2="1830.37" y2="2190.58" gradientUnits="userSpaceOnUse" spreadMethod="reflect" id="fill65"><stop offset="0" stop-color="#0C70CB"/><stop offset="0.14" stop-color="#0C70CB"/><stop offset="0.76" stop-color="#6CC2D9"/><stop offset="1" stop-color="#6CC2D9"/></linearGradient><linearGradient x1="818.065" y1="2190.58" x2="1830.37" y2="2190.58" gradientUnits="userSpaceOnUse" spreadMethod="reflect" id="fill66"><stop offset="0" stop-color="#0C70CB"/><stop offset="0.14" stop-color="#0C70CB"/><stop offset="0.76" stop-color="#6CC2D9"/><stop offset="1" stop-color="#6CC2D9"/></linearGradient><linearGradient x1="818.065" y1="2190.58" x2="1830.37" y2="2190.58" gradientUnits="userSpaceOnUse" spreadMethod="reflect" id="fill67"><stop offset="0" stop-color="#0C70CB"/><stop offset="0.14" stop-color="#0C70CB"/><stop offset="0.76" stop-color="#6CC2D9"/><stop offset="1" stop-color="#6CC2D9"/></linearGradient><linearGradient x1="818.065" y1="2190.58" x2="1830.37" y2="2190.58" gradientUnits="userSpaceOnUse" spreadMethod="reflect" id="fill68"><stop offset="0" stop-color="#0C70CB"/><stop offset="0.14" stop-color="#0C70CB"/><stop offset="0.76" stop-color="#6CC2D9"/><stop offset="1" stop-color="#6CC2D9"/></linearGradient><linearGradient x1="818.065" y1="2190.58" x2="1830.37" y2="2190.58" gradientUnits="userSpaceOnUse" spreadMethod="reflect" id="fill69"><stop offset="0" stop-color="#0C70CB"/><stop offset="0.14" stop-color="#0C70CB"/><stop offset="0.76" stop-color="#6CC2D9"/><stop offset="1" stop-color="#6CC2D9"/></linearGradient><linearGradient x1="818.065" y1="2190.58" x2="1830.37" y2="2190.58" gradientUnits="userSpaceOnUse" spreadMethod="reflect" id="fill70"><stop offset="0" stop-color="#0C70CB"/><stop offset="0.14" stop-color="#0C70CB"/><stop offset="0.76" stop-color="#6CC2D9"/><stop offset="1" stop-color="#6CC2D9"/></linearGradient><linearGradient x1="818.065" y1="2190.58" x2="1830.37" y2="2190.58" gradientUnits="userSpaceOnUse" spreadMethod="reflect" id="fill71"><stop offset="0" stop-color="#0C70CB"/><stop offset="0.14" stop-color="#0C70CB"/><stop offset="0.76" stop-color="#6CC2D9"/><stop offset="1" stop-color="#6CC2D9"/></linearGradient><linearGradient x1="818.065" y1="2190.58" x2="1830.37" y2="2190.58" gradientUnits="userSpaceOnUse" spreadMethod="reflect" id="fill72"><stop offset="0" stop-color="#0C70CB"/><stop offset="0.14" stop-color="#0C70CB"/><stop offset="0.76" stop-color="#6CC2D9"/><stop offset="1" stop-color="#6CC2D9"/></linearGradient><linearGradient x1="818.065" y1="2190.58" x2="1830.37" y2="2190.58" gradientUnits="userSpaceOnUse" spreadMethod="reflect" id="fill73"><stop offset="0" stop-color="#0C70CB"/><stop offset="0.14" stop-color="#0C70CB"/><stop offset="0.76" stop-color="#6CC2D9"/><stop offset="1" stop-color="#6CC2D9"/></linearGradient><linearGradient x1="818.065" y1="2190.58" x2="1830.37" y2="2190.58" gradientUnits="userSpaceOnUse" spreadMethod="reflect" id="fill74"><stop offset="0" stop-color="#0C70CB"/><stop offset="0.14" stop-color="#0C70CB"/><stop offset="0.76" stop-color="#6CC2D9"/><stop offset="1" stop-color="#6CC2D9"/></linearGradient><linearGradient x1="818.065" y1="2190.58" x2="1830.37" y2="2190.58" gradientUnits="userSpaceOnUse" spreadMethod="reflect" id="fill75"><stop offset="0" stop-color="#0C70CB"/><stop offset="0.14" stop-color="#0C70CB"/><stop offset="0.76" stop-color="#6CC2D9"/><stop offset="1" stop-color="#6CC2D9"/></linearGradient><linearGradient x1="818.065" y1="2190.58" x2="1830.37" y2="2190.58" gradientUnits="userSpaceOnUse" spreadMethod="reflect" id="fill76"><stop offset="0" stop-color="#0C70CB"/><stop offset="0.14" stop-color="#0C70CB"/><stop offset="0.76" stop-color="#6CC2D9"/><stop offset="1" stop-color="#6CC2D9"/></linearGradient><linearGradient x1="818.065" y1="2190.58" x2="1830.37" y2="2190.58" gradientUnits="userSpaceOnUse" spreadMethod="reflect" id="fill77"><stop offset="0" stop-color="#0C70CB"/><stop offset="0.14" stop-color="#0C70CB"/><stop offset="0.76" stop-color="#6CC2D9"/><stop offset="1" stop-color="#6CC2D9"/></linearGradient><linearGradient x1="818.065" y1="2190.58" x2="1830.37" y2="2190.58" gradientUnits="userSpaceOnUse" spreadMethod="reflect" id="fill78"><stop offset="0" stop-color="#0C70CB"/><stop offset="0.14" stop-color="#0C70CB"/><stop offset="0.76" stop-color="#6CC2D9"/><stop offset="1" stop-color="#6CC2D9"/></linearGradient><linearGradient x1="818.065" y1="2190.58" x2="1830.37" y2="2190.58" gradientUnits="userSpaceOnUse" spreadMethod="reflect" id="fill79"><stop offset="0" stop-color="#0C70CB"/><stop offset="0.14" stop-color="#0C70CB"/><stop offset="0.76" stop-color="#6CC2D9"/><stop offset="1" stop-color="#6CC2D9"/></linearGradient><linearGradient x1="818.065" y1="2190.58" x2="1830.37" y2="2190.58" gradientUnits="userSpaceOnUse" spreadMethod="reflect" id="fill80"><stop offset="0" stop-color="#0C70CB"/><stop offset="0.14" stop-color="#0C70CB"/><stop offset="0.76" stop-color="#6CC2D9"/><stop offset="1" stop-color="#6CC2D9"/></linearGradient><linearGradient x1="818.065" y1="2190.58" x2="1830.37" y2="2190.58" gradientUnits="userSpaceOnUse" spreadMethod="reflect" id="fill81"><stop offset="0" stop-color="#0C70CB"/><stop offset="0.14" stop-color="#0C70CB"/><stop offset="0.76" stop-color="#6CC2D9"/><stop offset="1" stop-color="#6CC2D9"/></linearGradient><linearGradient x1="818.065" y1="2190.58" x2="1830.37" y2="2190.58" gradientUnits="userSpaceOnUse" spreadMethod="reflect" id="fill82"><stop offset="0" stop-color="#0C70CB"/><stop offset="0.14" stop-color="#0C70CB"/><stop offset="0.76" stop-color="#6CC2D9"/><stop offset="1" stop-color="#6CC2D9"/></linearGradient><linearGradient x1="818.065" y1="2190.58" x2="1830.37" y2="2190.58" gradientUnits="userSpaceOnUse" spreadMethod="reflect" id="fill83"><stop offset="0" stop-color="#0C70CB"/><stop offset="0.14" stop-color="#0C70CB"/><stop offset="0.76" stop-color="#6CC2D9"/><stop offset="1" stop-color="#6CC2D9"/></linearGradient><linearGradient x1="818.065" y1="2190.58" x2="1830.37" y2="2190.58" gradientUnits="userSpaceOnUse" spreadMethod="reflect" id="fill84"><stop offset="0" stop-color="#0C70CB"/><stop offset="0.14" stop-color="#0C70CB"/><stop offset="0.76" stop-color="#6CC2D9"/><stop offset="1" stop-color="#6CC2D9"/></linearGradient><linearGradient x1="818.065" y1="2190.58" x2="1830.37" y2="2190.58" gradientUnits="userSpaceOnUse" spreadMethod="reflect" id="fill85"><stop offset="0" stop-color="#0C70CB"/><stop offset="0.14" stop-color="#0C70CB"/><stop offset="0.76" stop-color="#6CC2D9"/><stop offset="1" stop-color="#6CC2D9"/></linearGradient><linearGradient x1="818.065" y1="2190.58" x2="1830.37" y2="2190.58" gradientUnits="userSpaceOnUse" spreadMethod="reflect" id="fill86"><stop offset="0" stop-color="#0C70CB"/><stop offset="0.14" stop-color="#0C70CB"/><stop offset="0.76" stop-color="#6CC2D9"/><stop offset="1" stop-color="#6CC2D9"/></linearGradient><linearGradient x1="818.065" y1="2190.58" x2="1830.37" y2="2190.58" gradientUnits="userSpaceOnUse" spreadMethod="reflect" id="fill87"><stop offset="0" stop-color="#0C70CB"/><stop offset="0.14" stop-color="#0C70CB"/><stop offset="0.76" stop-color="#6CC2D9"/><stop offset="1" stop-color="#6CC2D9"/></linearGradient><linearGradient x1="818.065" y1="2190.58" x2="1830.37" y2="2190.58" gradientUnits="userSpaceOnUse" spreadMethod="reflect" id="fill88"><stop offset="0" stop-color="#0C70CB"/><stop offset="0.14" stop-color="#0C70CB"/><stop offset="0.76" stop-color="#6CC2D9"/><stop offset="1" stop-color="#6CC2D9"/></linearGradient><linearGradient x1="818.065" y1="2190.58" x2="1830.37" y2="2190.58" gradientUnits="userSpaceOnUse" spreadMethod="reflect" id="fill89"><stop offset="0" stop-color="#0C70CB"/><stop offset="0.14" stop-color="#0C70CB"/><stop offset="0.76" stop-color="#6CC2D9"/><stop offset="1" stop-color="#6CC2D9"/></linearGradient><linearGradient x1="818.065" y1="2190.58" x2="1830.37" y2="2190.58" gradientUnits="userSpaceOnUse" spreadMethod="reflect" id="fill90"><stop offset="0" stop-color="#0C70CB"/><stop offset="0.14" stop-color="#0C70CB"/><stop offset="0.76" stop-color="#6CC2D9"/><stop offset="1" stop-color="#6CC2D9"/></linearGradient><linearGradient x1="818.065" y1="2190.58" x2="1830.37" y2="2190.58" gradientUnits="userSpaceOnUse" spreadMethod="reflect" id="fill91"><stop offset="0" stop-color="#0C70CB"/><stop offset="0.14" stop-color="#0C70CB"/><stop offset="0.76" stop-color="#6CC2D9"/><stop offset="1" stop-color="#6CC2D9"/></linearGradient><linearGradient x1="818.065" y1="2190.58" x2="1830.37" y2="2190.58" gradientUnits="userSpaceOnUse" spreadMethod="reflect" id="fill92"><stop offset="0" stop-color="#0C70CB"/><stop offset="0.14" stop-color="#0C70CB"/><stop offset="0.76" stop-color="#6CC2D9"/><stop offset="1" stop-color="#6CC2D9"/></linearGradient><linearGradient x1="818.065" y1="2190.58" x2="1830.37" y2="2190.58" gradientUnits="userSpaceOnUse" spreadMethod="reflect" id="fill93"><stop offset="0" stop-color="#0C70CB"/><stop offset="0.14" stop-color="#0C70CB"/><stop offset="0.76" stop-color="#6CC2D9"/><stop offset="1" stop-color="#6CC2D9"/></linearGradient><linearGradient x1="818.065" y1="2190.58" x2="1830.37" y2="2190.58" gradientUnits="userSpaceOnUse" spreadMethod="reflect" id="fill94"><stop offset="0" stop-color="#0C70CB"/><stop offset="0.14" stop-color="#0C70CB"/><stop offset="0.76" stop-color="#6CC2D9"/><stop offset="1" stop-color="#6CC2D9"/></linearGradient><linearGradient x1="818.065" y1="2190.58" x2="1830.37" y2="2190.58" gradientUnits="userSpaceOnUse" spreadMethod="reflect" id="fill95"><stop offset="0" stop-color="#0C70CB"/><stop offset="0.14" stop-color="#0C70CB"/><stop offset="0.76" stop-color="#6CC2D9"/><stop offset="1" stop-color="#6CC2D9"/></linearGradient><linearGradient x1="818.065" y1="2190.58" x2="1830.37" y2="2190.58" gradientUnits="userSpaceOnUse" spreadMethod="reflect" id="fill96"><stop offset="0" stop-color="#0C70CB"/><stop offset="0.14" stop-color="#0C70CB"/><stop offset="0.76" stop-color="#6CC2D9"/><stop offset="1" stop-color="#6CC2D9"/></linearGradient><linearGradient x1="818.065" y1="2190.58" x2="1830.37" y2="2190.58" gradientUnits="userSpaceOnUse" spreadMethod="reflect" id="fill97"><stop offset="0" stop-color="#0C70CB"/><stop offset="0.14" stop-color="#0C70CB"/><stop offset="0.76" stop-color="#6CC2D9"/><stop offset="1" stop-color="#6CC2D9"/></linearGradient><linearGradient x1="818.065" y1="2190.58" x2="1830.37" y2="2190.58" gradientUnits="userSpaceOnUse" spreadMethod="reflect" id="fill98"><stop offset="0" stop-color="#0C70CB"/><stop offset="0.14" stop-color="#0C70CB"/><stop offset="0.76" stop-color="#6CC2D9"/><stop offset="1" stop-color="#6CC2D9"/></linearGradient><linearGradient x1="818.065" y1="2190.58" x2="1830.37" y2="2190.58" gradientUnits="userSpaceOnUse" spreadMethod="reflect" id="fill99"><stop offset="0" stop-color="#0C70CB"/><stop offset="0.14" stop-color="#0C70CB"/><stop offset="0.76" stop-color="#6CC2D9"/><stop offset="1" stop-color="#6CC2D9"/></linearGradient><linearGradient x1="818.065" y1="2190.58" x2="1830.37" y2="2190.58" gradientUnits="userSpaceOnUse" spreadMethod="reflect" id="fill100"><stop offset="0" stop-color="#0C70CB"/><stop offset="0.14" stop-color="#0C70CB"/><stop offset="0.76" stop-color="#6CC2D9"/><stop offset="1" stop-color="#6CC2D9"/></linearGradient><linearGradient x1="818.065" y1="2190.58" x2="1830.37" y2="2190.58" gradientUnits="userSpaceOnUse" spreadMethod="reflect" id="fill101"><stop offset="0" stop-color="#0C70CB"/><stop offset="0.14" stop-color="#0C70CB"/><stop offset="0.76" stop-color="#6CC2D9"/><stop offset="1" stop-color="#6CC2D9"/></linearGradient><linearGradient x1="818.065" y1="2190.58" x2="1830.37" y2="2190.58" gradientUnits="userSpaceOnUse" spreadMethod="reflect" id="fill102"><stop offset="0" stop-color="#0C70CB"/><stop offset="0.14" stop-color="#0C70CB"/><stop offset="0.76" stop-color="#6CC2D9"/><stop offset="1" stop-color="#6CC2D9"/></linearGradient></defs><g clip-path="url(#clip0)" transform="translate(-818 -1694)"><path d="M1294.29 1835.72C1290.3 1831.22 1290.71 1824.33 1295.21 1820.34 1299.71 1816.35 1306.59 1816.75 1310.59 1821.25 1314.58 1825.75 1314.17 1832.64 1309.67 1836.63 1305.17 1840.63 1298.29 1840.22 1294.29 1835.72Z" fill="url(#fill1)" fill-rule="evenodd"/><path d="M1344.89 1838.75C1334.84 1840.04 1325.65 1832.93 1324.36 1822.88 1323.07 1812.83 1330.18 1803.64 1340.23 1802.35 1350.28 1801.06 1359.47 1808.17 1360.76 1818.22 1362.05 1828.27 1354.94 1837.46 1344.89 1838.75Z" fill="url(#fill2)" fill-rule="evenodd"/><path d="M1616.22 1840.03C1606.17 1841.32 1596.97 1834.22 1595.69 1824.17 1594.4 1814.11 1601.5 1804.92 1611.56 1803.64 1621.61 1802.35 1630.8 1809.45 1632.08 1819.5 1633.37 1829.56 1626.27 1838.75 1616.22 1840.03Z" fill="url(#fill3)" fill-rule="evenodd"/><path d="M1642.32 1857.71C1635.85 1858.54 1629.93 1853.96 1629.1 1847.48 1628.27 1841.01 1632.85 1835.09 1639.32 1834.26 1645.8 1833.43 1651.72 1838 1652.55 1844.48 1653.38 1850.95 1648.8 1856.88 1642.32 1857.71Z" fill="url(#fill4)" fill-rule="evenodd"/><path d="M1401.97 1845.03C1391.2 1849.01 1379.24 1843.51 1375.25 1832.74 1371.27 1821.97 1376.77 1810.01 1387.54 1806.03 1398.31 1802.04 1410.27 1807.54 1414.25 1818.31 1418.24 1829.08 1412.74 1841.04 1401.97 1845.03Z" fill="url(#fill5)" fill-rule="evenodd"/><path d="M1385.9 1810.29C1385.12 1810.58 1384.26 1810.18 1383.97 1809.4L1365.55 1759.61C1365.26 1758.83 1365.66 1757.96 1366.44 1757.67L1372.08 1755.59C1372.86 1755.3 1373.73 1755.7 1374.01 1756.48L1392.43 1806.27C1392.72 1807.05 1392.32 1807.91 1391.55 1808.2Z" fill="url(#fill6)" fill-rule="evenodd"/><path d="M1455.41 1866.32C1444.39 1869.56 1432.83 1863.27 1429.59 1852.25 1426.34 1841.24 1432.64 1829.68 1443.65 1826.43 1454.67 1823.19 1466.23 1829.48 1469.47 1840.5 1472.72 1851.51 1466.42 1863.07 1455.41 1866.32Z" fill="url(#fill7)" fill-rule="evenodd"/><path d="M1414.63 1728.62C1408.86 1730.32 1402.81 1727.02 1401.1 1721.25 1399.4 1715.47 1402.7 1709.42 1408.47 1707.72 1414.25 1706.02 1420.3 1709.32 1422 1715.09 1423.7 1720.86 1420.4 1726.91 1414.63 1728.62Z" fill="url(#fill8)" fill-rule="evenodd"/><path d="M1443.23 1836.31C1442.44 1836.55 1441.6 1836.09 1441.37 1835.3L1407.85 1721.55C1407.61 1720.76 1408.07 1719.92 1408.86 1719.69L1414.64 1717.98C1415.43 1717.75 1416.27 1718.21 1416.51 1719L1450.02 1832.75C1450.26 1833.54 1449.8 1834.38 1449.01 1834.61Z" fill="url(#fill9)" fill-rule="evenodd"/><path d="M1500.67 1882.5C1490.54 1883.79 1481.27 1876.63 1479.98 1866.5 1478.68 1856.37 1485.84 1847.11 1495.97 1845.81 1506.1 1844.51 1515.37 1851.67 1516.66 1861.8 1517.96 1871.93 1510.8 1881.2 1500.67 1882.5Z" fill="url(#fill10)" fill-rule="evenodd"/><path d="M1481.37 1731.78C1471.24 1733.08 1461.97 1725.92 1460.67 1715.79 1459.38 1705.66 1466.54 1696.39 1476.67 1695.1 1486.8 1693.8 1496.06 1700.96 1497.36 1711.09 1498.66 1721.22 1491.5 1730.49 1481.37 1731.78Z" fill="url(#fill11)" fill-rule="evenodd"/><path d="M1493.05 1849.53C1492.23 1849.63 1491.48 1849.05 1491.37 1848.22L1476.31 1730.61C1476.2 1729.78 1476.78 1729.03 1477.61 1728.92L1483.58 1728.16C1484.4 1728.05 1485.15 1728.64 1485.26 1729.46L1500.32 1847.08C1500.43 1847.9 1499.85 1848.66 1499.02 1848.76Z" fill="url(#fill12)" fill-rule="evenodd"/><path d="M1531.83 1760.49C1519.98 1762.01 1509.15 1753.64 1507.63 1741.79 1506.11 1729.95 1514.49 1719.12 1526.33 1717.6 1538.18 1716.08 1549.01 1724.45 1550.53 1736.3 1552.04 1748.15 1543.67 1758.98 1531.83 1760.49Z" fill="url(#fill13)" fill-rule="evenodd"/><path d="M1547.95 1883.41C1541.98 1884.17 1536.52 1879.95 1535.76 1873.98 1534.99 1868.02 1539.21 1862.56 1545.18 1861.79 1551.15 1861.03 1556.6 1865.25 1557.37 1871.22 1558.13 1877.18 1553.91 1882.64 1547.95 1883.41Z" fill="url(#fill14)" fill-rule="evenodd"/><path d="M1543.58 1871.7C1542.76 1871.8 1542.01 1871.22 1541.9 1870.39L1526.84 1752.78C1526.73 1751.95 1527.31 1751.2 1528.14 1751.09L1534.11 1750.33C1534.93 1750.22 1535.69 1750.8 1535.79 1751.63L1550.85 1869.25C1550.96 1870.07 1550.38 1870.83 1549.55 1870.93Z" fill="url(#fill15)" fill-rule="evenodd"/><path d="M1577.37 1793.39C1565.43 1793.66 1555.53 1784.2 1555.26 1772.27 1554.99 1760.33 1564.45 1750.43 1576.39 1750.16 1588.33 1749.88 1598.23 1759.34 1598.5 1771.28 1598.77 1783.22 1589.31 1793.12 1577.37 1793.39Z" fill="url(#fill16)" fill-rule="evenodd"/><path d="M1575.51 1844.01C1574.68 1844.03 1573.99 1843.38 1573.98 1842.54L1572.32 1769.81C1572.3 1768.98 1572.96 1768.29 1573.79 1768.27L1579.81 1768.14C1580.64 1768.12 1581.33 1768.78 1581.34 1769.61L1583 1842.34C1583.02 1843.17 1582.36 1843.86 1581.53 1843.88Z" fill="url(#fill17)" fill-rule="evenodd"/><path d="M1015.35 2051.92C1009.56 2051.78 1004.97 2046.98 1005.11 2041.19 1005.24 2035.4 1010.05 2030.81 1015.84 2030.95 1021.63 2031.08 1026.21 2035.89 1026.08 2041.68 1025.94 2047.47 1021.14 2052.05 1015.35 2051.92Z" fill="url(#fill18)" fill-rule="evenodd"/><path d="M1050.66 2018.24C1044.98 2026.17 1033.94 2027.99 1026.02 2022.31 1018.09 2016.62 1016.27 2005.59 1021.95 1997.66 1027.64 1989.73 1038.67 1987.91 1046.6 1993.6 1054.53 1999.28 1056.35 2010.32 1050.66 2018.24Z" fill="url(#fill19)" fill-rule="evenodd"/><path d="M1229.49 1827.86C1223.81 1835.79 1212.77 1837.61 1204.85 1831.92 1196.92 1826.24 1195.1 1815.2 1200.78 1807.28 1206.47 1799.35 1217.5 1797.53 1225.43 1803.21 1233.36 1808.9 1235.18 1819.93 1229.49 1827.86Z" fill="url(#fill20)" fill-rule="evenodd"/><path d="M1259.07 1821.05C1255.4 1826.15 1248.3 1827.33 1243.19 1823.66 1238.08 1820 1236.91 1812.89 1240.57 1807.79 1244.23 1802.68 1251.34 1801.51 1256.45 1805.17 1261.56 1808.83 1262.73 1815.94 1259.07 1821.05Z" fill="url(#fill21)" fill-rule="evenodd"/><path d="M1092.51 1982.13C1088.26 1992.34 1076.54 1997.16 1066.34 1992.9 1056.14 1988.65 1051.31 1976.93 1055.57 1966.73 1059.82 1956.53 1071.54 1951.7 1081.74 1955.96 1091.95 1960.21 1096.77 1971.93 1092.51 1982.13Z" fill="url(#fill22)" fill-rule="evenodd"/><path d="M1057.5 1970.68C1057.19 1971.42 1056.34 1971.76 1055.6 1971.46L1008.43 1951.79C1007.69 1951.48 1007.34 1950.63 1007.65 1949.89L1009.88 1944.55C1010.19 1943.81 1011.04 1943.46 1011.77 1943.77L1058.95 1963.44C1059.69 1963.74 1060.04 1964.59 1059.73 1965.33Z" fill="url(#fill23)" fill-rule="evenodd"/><path d="M1142.57 1958.43C1137.63 1968.32 1125.61 1972.34 1115.72 1967.4 1105.83 1962.47 1101.81 1950.45 1106.75 1940.56 1111.68 1930.67 1123.7 1926.65 1133.59 1931.59 1143.48 1936.52 1147.5 1948.54 1142.57 1958.43Z" fill="url(#fill24)" fill-rule="evenodd"/><path d="M1018.78 1896.87C1016.19 1902.05 1009.89 1904.16 1004.71 1901.57 999.526 1898.99 997.421 1892.69 1000.01 1887.51 1002.59 1882.32 1008.89 1880.22 1014.07 1882.8 1019.26 1885.39 1021.36 1891.69 1018.78 1896.87Z" fill="url(#fill25)" fill-rule="evenodd"/><path d="M1113.44 1947.34C1113.08 1948.05 1112.21 1948.34 1111.49 1947.99L1009.35 1897.02C1008.63 1896.66 1008.34 1895.79 1008.7 1895.08L1011.29 1889.9C1011.64 1889.18 1012.51 1888.89 1013.23 1889.25L1115.37 1940.21C1116.09 1940.57 1116.38 1941.44 1116.02 1942.15Z" fill="url(#fill26)" fill-rule="evenodd"/><path d="M1183.65 1937.14C1177.92 1945.13 1166.8 1946.97 1158.81 1941.24 1150.82 1935.51 1148.98 1924.39 1154.71 1916.39 1160.44 1908.4 1171.56 1906.57 1179.55 1912.3 1187.54 1918.03 1189.38 1929.15 1183.65 1937.14Z" fill="url(#fill27)" fill-rule="evenodd"/><path d="M1064.77 1851.91C1059.04 1859.9 1047.92 1861.74 1039.93 1856.01 1031.94 1850.28 1030.1 1839.16 1035.83 1831.17 1041.56 1823.18 1052.68 1821.34 1060.67 1827.07 1068.66 1832.8 1070.5 1843.92 1064.77 1851.91Z" fill="url(#fill28)" fill-rule="evenodd"/><path d="M1155.42 1920.89C1154.95 1921.54 1154.05 1921.69 1153.4 1921.22L1060.62 1854.71C1059.97 1854.24 1059.82 1853.34 1060.29 1852.69L1063.66 1847.98C1064.13 1847.33 1065.03 1847.18 1065.68 1847.65L1158.46 1914.16C1159.11 1914.62 1159.26 1915.53 1158.79 1916.18Z" fill="url(#fill29)" fill-rule="evenodd"/><path d="M1118.09 1835.18C1111.39 1844.52 1098.39 1846.67 1089.05 1839.97 1079.7 1833.27 1077.56 1820.26 1084.26 1810.92 1090.96 1801.58 1103.96 1799.43 1113.3 1806.13 1122.65 1812.83 1124.79 1825.84 1118.09 1835.18Z" fill="url(#fill30)" fill-rule="evenodd"/><path d="M1215.29 1904.42C1211.92 1909.12 1205.36 1910.2 1200.66 1906.83 1195.95 1903.45 1194.87 1896.9 1198.24 1892.19 1201.62 1887.49 1208.17 1886.41 1212.88 1889.78 1217.58 1893.16 1218.66 1899.71 1215.29 1904.42Z" fill="url(#fill31)" fill-rule="evenodd"/><path d="M1204.18 1899.81C1203.71 1900.46 1202.81 1900.61 1202.16 1900.14L1109.38 1833.63C1108.73 1833.17 1108.58 1832.26 1109.05 1831.61L1112.42 1826.9C1112.89 1826.25 1113.79 1826.1 1114.45 1826.57L1207.22 1893.08C1207.87 1893.55 1208.02 1894.45 1207.55 1895.1Z" fill="url(#fill32)" fill-rule="evenodd"/><path d="M1171.14 1824.65C1163.51 1833.24 1150.35 1834.02 1141.76 1826.38 1133.16 1818.74 1132.39 1805.58 1140.03 1796.99 1147.66 1788.4 1160.82 1787.62 1169.41 1795.26 1178.01 1802.9 1178.78 1816.06 1171.14 1824.65Z" fill="url(#fill33)" fill-rule="evenodd"/><path d="M1205.61 1859.16C1205.07 1859.75 1204.16 1859.81 1203.56 1859.28L1151.21 1812.75C1150.62 1812.22 1150.56 1811.3 1151.09 1810.7L1154.94 1806.37C1155.47 1805.78 1156.39 1805.72 1156.99 1806.25L1209.33 1852.78C1209.93 1853.31 1209.99 1854.23 1209.45 1854.83Z" fill="url(#fill34)" fill-rule="evenodd"/><path d="M1395.75 2569.03C1399.16 2573.98 1397.91 2580.76 1392.96 2584.18 1388 2587.59 1381.22 2586.34 1377.81 2581.38 1374.39 2576.43 1375.64 2569.64 1380.6 2566.23 1385.56 2562.82 1392.34 2564.07 1395.75 2569.03Z" fill="url(#fill35)" fill-rule="evenodd"/><path d="M1345.91 2559.81C1356.04 2559.77 1364.29 2567.94 1364.33 2578.08 1364.38 2588.21 1356.2 2596.46 1346.07 2596.51 1335.93 2596.55 1327.68 2588.37 1327.64 2578.24 1327.59 2568.11 1335.77 2559.85 1345.91 2559.81Z" fill="url(#fill36)" fill-rule="evenodd"/><path d="M1076.79 2525.25C1086.92 2525.21 1095.17 2533.38 1095.22 2543.52 1095.26 2553.65 1087.08 2561.9 1076.95 2561.94 1066.82 2561.99 1058.57 2553.81 1058.52 2543.68 1058.48 2533.54 1066.65 2525.29 1076.79 2525.25Z" fill="url(#fill37)" fill-rule="evenodd"/><path d="M1053.05 2504.51C1059.57 2504.48 1064.89 2509.75 1064.92 2516.28 1064.95 2522.81 1059.68 2528.12 1053.15 2528.15 1046.62 2528.18 1041.31 2522.91 1041.28 2516.38 1041.25 2509.85 1046.52 2504.54 1053.05 2504.51Z" fill="url(#fill38)" fill-rule="evenodd"/><path d="M1290.03 2546.58C1301.21 2543.95 1312.4 2550.87 1315.04 2562.05 1317.67 2573.23 1310.74 2584.42 1299.57 2587.05 1288.39 2589.69 1277.19 2582.76 1274.56 2571.58 1271.93 2560.41 1278.86 2549.21 1290.03 2546.58Z" fill="url(#fill39)" fill-rule="evenodd"/><path d="M1301.71 2583.02C1302.52 2582.83 1303.33 2583.33 1303.52 2584.14L1315.7 2635.82C1315.89 2636.63 1315.39 2637.44 1314.58 2637.63L1308.72 2639.01C1307.91 2639.2 1307.1 2638.7 1306.91 2637.89L1294.74 2586.21C1294.55 2585.4 1295.05 2584.59 1295.86 2584.4Z" fill="url(#fill40)" fill-rule="evenodd"/><path d="M1239.61 2518.89C1250.94 2517.02 1261.64 2524.69 1263.51 2536.02 1265.38 2547.35 1257.71 2558.05 1246.38 2559.92 1235.05 2561.79 1224.35 2554.12 1222.48 2542.79 1220.61 2531.46 1228.28 2520.76 1239.61 2518.89Z" fill="url(#fill41)" fill-rule="evenodd"/><path d="M1263.18 2660.56C1269.12 2659.58 1274.72 2663.59 1275.7 2669.53 1276.68 2675.47 1272.66 2681.07 1266.73 2682.05 1260.79 2683.03 1255.19 2679.02 1254.21 2673.08 1253.23 2667.14 1257.24 2661.54 1263.18 2660.56Z" fill="url(#fill42)" fill-rule="evenodd"/><path d="M1248.01 2550.16C1248.83 2550.03 1249.6 2550.58 1249.74 2551.4L1269.05 2668.4C1269.18 2669.22 1268.63 2669.99 1267.81 2670.13L1261.87 2671.11C1261.05 2671.24 1260.28 2670.69 1260.14 2669.87L1240.83 2552.87C1240.7 2552.05 1241.25 2551.28 1242.07 2551.14Z" fill="url(#fill43)" fill-rule="evenodd"/><path d="M1196.67 2497.28C1206.89 2497.24 1215.2 2505.48 1215.25 2515.7 1215.29 2525.91 1207.05 2534.22 1196.83 2534.27 1186.62 2534.31 1178.31 2526.07 1178.26 2515.86 1178.22 2505.64 1186.46 2497.33 1196.67 2497.28Z" fill="url(#fill44)" fill-rule="evenodd"/><path d="M1197.34 2649.23C1207.55 2649.18 1215.87 2657.42 1215.91 2667.64 1215.96 2677.85 1207.72 2686.17 1197.5 2686.21 1187.29 2686.26 1178.97 2678.01 1178.93 2667.8 1178.88 2657.59 1187.13 2649.27 1197.34 2649.23Z" fill="url(#fill45)" fill-rule="evenodd"/><path d="M1200.19 2530.94C1201.02 2530.94 1201.69 2531.61 1201.7 2532.44L1202.22 2651.02C1202.22 2651.85 1201.55 2652.52 1200.72 2652.53L1194.7 2652.55C1193.87 2652.56 1193.19 2651.89 1193.19 2651.05L1192.67 2532.48C1192.67 2531.65 1193.34 2530.97 1194.17 2530.97Z" fill="url(#fill46)" fill-rule="evenodd"/><path d="M1150.78 2614.54C1162.73 2614.49 1172.45 2624.13 1172.5 2636.07 1172.55 2648.01 1162.92 2657.74 1150.97 2657.79 1139.03 2657.84 1129.31 2648.2 1129.26 2636.26 1129.2 2624.32 1138.84 2614.59 1150.78 2614.54Z" fill="url(#fill47)" fill-rule="evenodd"/><path d="M1149.86 2490.58C1155.88 2490.55 1160.78 2495.41 1160.81 2501.43 1160.83 2507.44 1155.98 2512.34 1149.96 2512.37 1143.94 2512.4 1139.04 2507.54 1139.02 2501.52 1138.99 2495.51 1143.85 2490.61 1149.86 2490.58Z" fill="url(#fill48)" fill-rule="evenodd"/><path d="M1152.76 2502.74C1153.59 2502.73 1154.26 2503.4 1154.27 2504.24L1154.79 2622.81C1154.79 2623.64 1154.12 2624.32 1153.29 2624.32L1147.27 2624.35C1146.44 2624.35 1145.76 2623.68 1145.76 2622.85L1145.24 2504.28C1145.24 2503.44 1145.91 2502.77 1146.74 2502.76Z" fill="url(#fill49)" fill-rule="evenodd"/><path d="M1109.62 2576.31C1121.5 2577.5 1130.16 2588.1 1128.97 2599.98 1127.77 2611.87 1117.17 2620.53 1105.29 2619.34 1093.41 2618.14 1084.74 2607.54 1085.94 2595.66 1087.13 2583.77 1097.74 2575.11 1109.62 2576.31Z" fill="url(#fill50)" fill-rule="evenodd"/><path d="M1117.67 2526.29C1118.5 2526.38 1119.1 2527.11 1119.02 2527.94L1111.74 2600.33C1111.65 2601.15 1110.92 2601.76 1110.09 2601.67L1104.1 2601.07C1103.28 2600.99 1102.67 2600.25 1102.76 2599.42L1110.04 2527.04C1110.12 2526.21 1110.86 2525.61 1111.68 2525.69Z" fill="url(#fill51)" fill-rule="evenodd"/><path d="M1001.98 2477.47C997.341 2482.59 989.428 2482.99 984.306 2478.35 979.184 2473.71 978.792 2465.8 983.431 2460.67 988.069 2455.55 995.982 2455.16 1001.1 2459.8 1006.23 2464.44 1006.62 2472.35 1001.98 2477.47Z" fill="url(#fill52)" fill-rule="evenodd"/><path d="M999.124 2419.32C1001.85 2430.64 994.884 2442.02 983.569 2444.74 972.254 2447.47 960.873 2440.5 958.148 2429.19 955.424 2417.87 962.388 2406.49 973.703 2403.77 985.018 2401.04 996.4 2408.01 999.124 2419.32Z" fill="url(#fill53)" fill-rule="evenodd"/><path d="M966.723 2109.38C969.447 2120.69 962.483 2132.07 951.168 2134.8 939.853 2137.52 928.472 2130.56 925.748 2119.24 923.023 2107.93 929.987 2096.54 941.302 2093.82 952.618 2091.1 963.999 2098.06 966.723 2109.38Z" fill="url(#fill54)" fill-rule="evenodd"/><path d="M983.641 2077.36C985.397 2084.65 980.91 2091.98 973.62 2093.74 966.33 2095.49 958.997 2091.01 957.242 2083.72 955.487 2076.43 959.974 2069.1 967.264 2067.34 974.554 2065.58 981.886 2070.07 983.641 2077.36Z" fill="url(#fill55)" fill-rule="evenodd"/><path d="M999.165 2353.37C1005.06 2365.17 1000.27 2379.51 988.473 2385.41 976.674 2391.3 962.333 2386.51 956.44 2374.71 950.548 2362.91 955.335 2348.57 967.133 2342.68 978.931 2336.79 993.273 2341.57 999.165 2353.37Z" fill="url(#fill56)" fill-rule="evenodd"/><path d="M961.512 2376.05C961.938 2376.9 961.592 2377.94 960.738 2378.37L906.184 2405.62C905.331 2406.04 904.293 2405.7 903.866 2404.84L900.778 2398.66C900.352 2397.8 900.698 2396.77 901.552 2396.34L956.106 2369.09C956.959 2368.67 957.997 2369.01 958.423 2369.87Z" fill="url(#fill57)" fill-rule="evenodd"/><path d="M1016.81 2289.7C1021.89 2301.87 1016.14 2315.85 1003.97 2320.93 991.799 2326.01 977.815 2320.27 972.735 2308.1 967.654 2295.93 973.401 2281.94 985.571 2276.86 997.741 2271.78 1011.73 2277.53 1016.81 2289.7Z" fill="url(#fill58)" fill-rule="evenodd"/><path d="M864.673 2353.44C867.335 2359.82 864.324 2367.15 857.947 2369.81 851.57 2372.47 844.242 2369.46 841.58 2363.08 838.918 2356.7 841.929 2349.38 848.306 2346.71 854.683 2344.05 862.011 2347.06 864.673 2353.44Z" fill="url(#fill59)" fill-rule="evenodd"/><path d="M984.069 2307.34C984.437 2308.22 984.021 2309.24 983.14 2309.6L857.458 2362.07C856.577 2362.44 855.565 2362.02 855.197 2361.14L852.535 2354.76C852.167 2353.88 852.583 2352.87 853.464 2352.5L979.146 2300.04C980.027 2299.67 981.039 2300.08 981.407 2300.96Z" fill="url(#fill60)" fill-rule="evenodd"/><path d="M1029.63 2236C1032.37 2247.41 1025.35 2258.88 1013.95 2261.62 1002.54 2264.37 991.073 2257.35 988.327 2245.95 985.581 2234.54 992.601 2223.07 1004.01 2220.32 1015.41 2217.58 1026.88 2224.6 1029.63 2236Z" fill="url(#fill61)" fill-rule="evenodd"/><path d="M859.961 2276.85C862.707 2288.26 855.687 2299.73 844.282 2302.48 832.878 2305.22 821.406 2298.2 818.66 2286.8 815.914 2275.39 822.934 2263.92 834.339 2261.17 845.743 2258.43 857.215 2265.45 859.961 2276.85Z" fill="url(#fill62)" fill-rule="evenodd"/><path d="M992.934 2248.81C993.157 2249.74 992.586 2250.67 991.659 2250.9L859.248 2282.78C858.32 2283 857.387 2282.43 857.163 2281.5L855.546 2274.78C855.322 2273.86 855.893 2272.92 856.821 2272.7L989.232 2240.82C990.16 2240.59 991.093 2241.17 991.316 2242.09Z" fill="url(#fill63)" fill-rule="evenodd"/><path d="M886.442 2215.66C889.653 2228.99 881.445 2242.41 868.11 2245.62 854.775 2248.83 841.362 2240.62 838.152 2227.28 834.941 2213.95 843.148 2200.54 856.484 2197.33 869.819 2194.12 883.232 2202.32 886.442 2215.66Z" fill="url(#fill64)" fill-rule="evenodd"/><path d="M1024.76 2181.91C1026.38 2188.63 1022.25 2195.39 1015.53 2197 1008.81 2198.62 1002.05 2194.49 1000.43 2187.77 998.817 2181.05 1002.95 2174.29 1009.67 2172.67 1016.39 2171.06 1023.15 2175.19 1024.76 2181.91Z" fill="url(#fill65)" fill-rule="evenodd"/><path d="M1011.94 2188.35C1012.16 2189.28 1011.59 2190.21 1010.66 2190.44L878.252 2222.32C877.325 2222.54 876.391 2221.97 876.168 2221.04L874.55 2214.32C874.327 2213.39 874.898 2212.46 875.826 2212.24L1008.24 2180.36C1009.16 2180.13 1010.1 2180.7 1010.32 2181.63Z" fill="url(#fill66)" fill-rule="evenodd"/><path d="M918.317 2159.55C920.117 2173.15 910.554 2185.63 896.956 2187.43 883.359 2189.23 870.876 2179.67 869.076 2166.07 867.275 2152.47 876.838 2139.99 890.436 2138.19 904.033 2136.39 916.516 2145.95 918.317 2159.55Z" fill="url(#fill67)" fill-rule="evenodd"/><path d="M976.349 2155.35C976.474 2156.3 975.809 2157.17 974.863 2157.29L892.026 2168.26C891.08 2168.38 890.212 2167.72 890.087 2166.77L889.179 2159.92C889.054 2158.98 889.719 2158.11 890.665 2157.98L973.502 2147.01C974.448 2146.89 975.316 2147.55 975.442 2148.5Z" fill="url(#fill68)" fill-rule="evenodd"/><path d="M1655.96 1888.23C1659.6 1883.43 1666.43 1882.49 1671.22 1886.13 1676.02 1889.76 1676.96 1896.6 1673.32 1901.39 1669.69 1906.19 1662.85 1907.12 1658.06 1903.49 1653.26 1899.85 1652.32 1893.02 1655.96 1888.23Z" fill="url(#fill69)" fill-rule="evenodd"/><path d="M1662.84 1938.45C1659.62 1928.84 1664.8 1918.44 1674.41 1915.22 1684.01 1912 1694.41 1917.18 1697.63 1926.79 1700.85 1936.39 1695.67 1946.79 1686.07 1950.01 1676.46 1953.23 1666.06 1948.05 1662.84 1938.45Z" fill="url(#fill70)" fill-rule="evenodd"/><path d="M1714.42 2204.83C1711.2 2195.22 1716.37 2184.82 1725.98 2181.6 1735.59 2178.38 1745.99 2183.56 1749.21 2193.17 1752.43 2202.78 1747.25 2213.17 1737.64 2216.39 1728.03 2219.61 1717.64 2214.44 1714.42 2204.83Z" fill="url(#fill71)" fill-rule="evenodd"/><path d="M1702.17 2233.88C1700.09 2227.69 1703.43 2220.99 1709.62 2218.91 1715.81 2216.84 1722.51 2220.17 1724.58 2226.36 1726.66 2232.55 1723.32 2239.25 1717.13 2241.33 1710.94 2243.4 1704.24 2240.07 1702.17 2233.88Z" fill="url(#fill72)" fill-rule="evenodd"/><path d="M1667.8 1995.65C1661.79 1985.86 1664.86 1973.06 1674.65 1967.06 1684.43 1961.05 1697.24 1964.12 1703.24 1973.91 1709.24 1983.69 1706.18 1996.5 1696.39 2002.5 1686.6 2008.51 1673.8 2005.44 1667.8 1995.65Z" fill="url(#fill73)" fill-rule="evenodd"/><path d="M1698.74 1973.13C1698.31 1972.42 1698.53 1971.5 1699.24 1971.06L1744.49 1943.3C1745.2 1942.86 1746.12 1943.08 1746.56 1943.79L1749.71 1948.92C1750.14 1949.63 1749.92 1950.56 1749.21 1950.99L1703.96 1978.76C1703.25 1979.19 1702.32 1978.97 1701.89 1978.26Z" fill="url(#fill74)" fill-rule="evenodd"/><path d="M1657.32 2052.22C1651.99 2042.04 1655.92 2029.48 1666.09 2024.15 1676.26 2018.82 1688.82 2022.75 1694.15 2032.92 1699.48 2043.09 1695.55 2055.66 1685.38 2060.98 1675.21 2066.31 1662.65 2062.39 1657.32 2052.22Z" fill="url(#fill75)" fill-rule="evenodd"/><path d="M1784.45 1985.41C1781.65 1980.08 1783.71 1973.49 1789.04 1970.7 1794.37 1967.91 1800.95 1969.97 1803.75 1975.3 1806.54 1980.63 1804.48 1987.21 1799.15 1990 1793.82 1992.79 1787.24 1990.74 1784.45 1985.41Z" fill="url(#fill76)" fill-rule="evenodd"/><path d="M1684.38 2034.43C1683.99 2033.7 1684.28 2032.79 1685.01 2032.4L1790.05 1977.38C1790.79 1976.99 1791.7 1977.27 1792.08 1978.01L1794.87 1983.34C1795.26 1984.08 1794.98 1984.99 1794.24 1985.37L1689.2 2040.4C1688.47 2040.78 1687.56 2040.5 1687.17 2039.76Z" fill="url(#fill77)" fill-rule="evenodd"/><path d="M1650.27 2099.76C1647.02 2090.08 1652.24 2079.59 1661.92 2076.35 1671.61 2073.1 1682.09 2078.32 1685.33 2088.01 1688.58 2097.69 1683.36 2108.17 1673.68 2111.42 1663.99 2114.66 1653.51 2109.44 1650.27 2099.76Z" fill="url(#fill78)" fill-rule="evenodd"/><path d="M1794.33 2051.48C1791.09 2041.8 1796.31 2031.31 1805.99 2028.07 1815.68 2024.82 1826.16 2030.04 1829.4 2039.73 1832.65 2049.41 1827.43 2059.89 1817.74 2063.14 1808.06 2066.38 1797.58 2061.16 1794.33 2051.48Z" fill="url(#fill79)" fill-rule="evenodd"/><path d="M1681.12 2085.87C1680.86 2085.08 1681.28 2084.23 1682.07 2083.97L1794.5 2046.29C1795.29 2046.02 1796.14 2046.45 1796.41 2047.23L1798.32 2052.94C1798.58 2053.73 1798.16 2054.58 1797.37 2054.84L1684.94 2092.52C1684.15 2092.79 1683.3 2092.36 1683.03 2091.58Z" fill="url(#fill80)" fill-rule="evenodd"/><path d="M1776 2106.56C1772.2 2095.24 1778.31 2082.98 1789.63 2079.19 1800.95 2075.4 1813.21 2081.5 1817 2092.82 1820.8 2104.14 1814.7 2116.4 1803.37 2120.19 1792.05 2123.99 1779.79 2117.89 1776 2106.56Z" fill="url(#fill81)" fill-rule="evenodd"/><path d="M1658.58 2146.31C1656.67 2140.61 1659.74 2134.43 1665.45 2132.52 1671.15 2130.61 1677.33 2133.68 1679.24 2139.39 1681.15 2145.09 1678.08 2151.27 1672.37 2153.18 1666.67 2155.09 1660.49 2152.01 1658.58 2146.31Z" fill="url(#fill82)" fill-rule="evenodd"/><path d="M1669.22 2139.75C1668.95 2138.96 1669.38 2138.11 1670.17 2137.85L1782.6 2100.17C1783.39 2099.9 1784.24 2100.33 1784.5 2101.12L1786.41 2106.82C1786.68 2107.61 1786.25 2108.46 1785.47 2108.73L1673.03 2146.41C1672.25 2146.67 1671.39 2146.25 1671.13 2145.46Z" fill="url(#fill83)" fill-rule="evenodd"/><path d="M1752.6 2157.64C1750.01 2145.99 1757.36 2134.43 1769.02 2131.84 1780.68 2129.25 1792.23 2136.6 1794.82 2148.26 1797.41 2159.92 1790.06 2171.47 1778.4 2174.06 1766.74 2176.65 1755.19 2169.3 1752.6 2157.64Z" fill="url(#fill84)" fill-rule="evenodd"/><path d="M1702.59 2165.68C1702.4 2164.87 1702.92 2164.06 1703.73 2163.88L1774.75 2148.1C1775.56 2147.92 1776.36 2148.43 1776.54 2149.24L1777.85 2155.11C1778.03 2155.92 1777.52 2156.73 1776.7 2156.91L1705.69 2172.7C1704.88 2172.88 1704.07 2172.36 1703.89 2171.55Z" fill="url(#fill85)" fill-rule="evenodd"/><path d="M1689.05 2279.33C1695 2278.42 1700.55 2282.51 1701.46 2288.46 1702.36 2294.4 1698.28 2299.96 1692.33 2300.87 1686.38 2301.77 1680.82 2297.68 1679.92 2291.74 1679.01 2285.79 1683.1 2280.23 1689.05 2279.33Z" fill="url(#fill86)" fill-rule="evenodd"/><path d="M1658.99 2320.14C1663.38 2311.01 1674.34 2307.16 1683.47 2311.54 1692.61 2315.93 1696.46 2326.89 1692.08 2336.02 1687.69 2345.16 1676.73 2349.01 1667.6 2344.62 1658.46 2340.24 1654.61 2329.28 1658.99 2320.14Z" fill="url(#fill87)" fill-rule="evenodd"/><path d="M1510.39 2547.16C1514.77 2538.02 1525.73 2534.17 1534.87 2538.56 1544 2542.94 1547.86 2553.9 1543.47 2563.04 1539.09 2572.17 1528.13 2576.02 1518.99 2571.64 1509.85 2567.25 1506 2556.29 1510.39 2547.16Z" fill="url(#fill88)" fill-rule="evenodd"/><path d="M1481.36 2559.46C1484.19 2553.57 1491.25 2551.09 1497.13 2553.92 1503.02 2556.74 1505.5 2563.8 1502.68 2569.69 1499.85 2575.58 1492.79 2578.06 1486.9 2575.23 1481.02 2572.41 1478.54 2565.35 1481.36 2559.46Z" fill="url(#fill89)" fill-rule="evenodd"/><path d="M1622.69 2364.63C1625.2 2353.43 1636.32 2346.38 1647.53 2348.89 1658.73 2351.41 1665.78 2362.52 1663.27 2373.73 1660.75 2384.93 1649.63 2391.98 1638.43 2389.47 1627.23 2386.96 1620.18 2375.84 1622.69 2364.63Z" fill="url(#fill90)" fill-rule="evenodd"/><path d="M1660.58 2370.04C1660.76 2369.23 1661.57 2368.72 1662.38 2368.9L1714.18 2380.51C1714.99 2380.69 1715.5 2381.5 1715.32 2382.31L1714 2388.18C1713.82 2388.99 1713.02 2389.5 1712.21 2389.32L1660.4 2377.7C1659.59 2377.52 1659.08 2376.72 1659.26 2375.91Z" fill="url(#fill91)" fill-rule="evenodd"/><path d="M1575.77 2397.91C1579.03 2386.9 1590.6 2380.62 1601.61 2383.88 1612.62 2387.15 1618.89 2398.72 1615.63 2409.73 1612.36 2420.74 1600.79 2427.01 1589.79 2423.75 1578.78 2420.48 1572.5 2408.91 1575.77 2397.91Z" fill="url(#fill92)" fill-rule="evenodd"/><path d="M1713.5 2438.56C1715.21 2432.79 1721.28 2429.5 1727.05 2431.21 1732.81 2432.92 1736.1 2438.98 1734.39 2444.75 1732.68 2450.52 1726.62 2453.81 1720.85 2452.1 1715.08 2450.39 1711.79 2444.33 1713.5 2438.56Z" fill="url(#fill93)" fill-rule="evenodd"/><path d="M1607.56 2404C1607.8 2403.21 1608.64 2402.75 1609.44 2402.99L1723.12 2436.7C1723.92 2436.94 1724.37 2437.78 1724.13 2438.57L1722.42 2444.34C1722.19 2445.14 1721.35 2445.59 1720.55 2445.36L1606.87 2411.64C1606.07 2411.41 1605.62 2410.57 1605.85 2409.77Z" fill="url(#fill94)" fill-rule="evenodd"/><path d="M1537.58 2427.09C1542 2417.89 1553.04 2414.01 1562.25 2418.42 1571.46 2422.84 1575.34 2433.89 1570.92 2443.1 1566.5 2452.31 1555.46 2456.19 1546.25 2451.77 1537.04 2447.35 1533.16 2436.3 1537.58 2427.09Z" fill="url(#fill95)" fill-rule="evenodd"/><path d="M1674.56 2492.84C1678.98 2483.63 1690.03 2479.75 1699.23 2484.17 1708.44 2488.59 1712.32 2499.64 1707.9 2508.85 1703.49 2518.05 1692.44 2521.94 1683.23 2517.52 1674.02 2513.1 1670.14 2502.05 1674.56 2492.84Z" fill="url(#fill96)" fill-rule="evenodd"/><path d="M1569.39 2438.63C1569.75 2437.88 1570.65 2437.57 1571.4 2437.92L1678.3 2489.23C1679.05 2489.59 1679.37 2490.49 1679.01 2491.24L1676.4 2496.67C1676.04 2497.42 1675.14 2497.73 1674.39 2497.37L1567.49 2446.06C1566.74 2445.7 1566.43 2444.8 1566.79 2444.05Z" fill="url(#fill97)" fill-rule="evenodd"/><path d="M1623.03 2519.58C1628.2 2508.81 1641.11 2504.27 1651.88 2509.44 1662.65 2514.61 1667.18 2527.53 1662.02 2538.29 1656.85 2549.06 1643.93 2553.6 1633.17 2548.43 1622.4 2543.26 1617.86 2530.35 1623.03 2519.58Z" fill="url(#fill98)" fill-rule="evenodd"/><path d="M1511.11 2466.28C1513.71 2460.85 1520.22 2458.57 1525.64 2461.17 1531.07 2463.77 1533.36 2470.28 1530.75 2475.71 1528.15 2481.13 1521.64 2483.42 1516.22 2480.81 1510.79 2478.21 1508.51 2471.7 1511.11 2466.28Z" fill="url(#fill99)" fill-rule="evenodd"/><path d="M1523.31 2468.99C1523.67 2468.24 1524.57 2467.92 1525.32 2468.28L1632.22 2519.59C1632.97 2519.95 1633.28 2520.85 1632.92 2521.6L1630.32 2527.02C1629.96 2527.77 1629.06 2528.09 1628.31 2527.73L1521.41 2476.42C1520.66 2476.06 1520.34 2475.16 1520.7 2474.41Z" fill="url(#fill100)" fill-rule="evenodd"/><path d="M1570.66 2539.92C1576.92 2529.75 1590.24 2526.59 1600.41 2532.85 1610.58 2539.11 1613.74 2552.43 1607.48 2562.6 1601.21 2572.77 1587.89 2575.93 1577.73 2569.67 1567.56 2563.41 1564.39 2550.09 1570.66 2539.92Z" fill="url(#fill101)" fill-rule="evenodd"/><path d="M1529.18 2510.83C1529.61 2510.13 1530.54 2509.91 1531.25 2510.34L1593.19 2548.5C1593.9 2548.93 1594.12 2549.86 1593.68 2550.57L1590.53 2555.69C1590.09 2556.4 1589.16 2556.62 1588.46 2556.18L1526.51 2518.03C1525.81 2517.59 1525.59 2516.66 1526.02 2515.96Z" fill="url(#fill102)" fill-rule="evenodd"/><text fill="#2787CF" font-family="Akaju Light,Akaju Light_MSFontService,sans-serif" font-weight="300" font-size="403" transform="matrix(1 0 0 1 1139 2318)">GENETECH</text></g></svg>